# xmcd CD database file
#
# Track frame offsets:
#	150
#	14349
#	27680
#	40982
#	55798
#	73477
#	89011
#	99653
#	117614
#	134761
#	150245
#	167479
#	184913
#	198434
#	216098
#	233112
#	248164
#	269083
#	289624
#
# Disc length: 4055 seconds
#
# Revision: 1
# Processed by: cddbd v1.5PL3 Copyright (c) Steve Scherf et al.
# Submitted via: CDex 1.51
#
DISCID=260fd513
DTITLE=TOM ASTOR - Das Beste... Live!
DYEAR=1996
DGENRE=Country
TTITLE0=ICH BIN WIE ICH BIN
TTITLE1=HUNGRIGE HERZEN
TTITLE2=FREUNDE
TTITLE3=LIEDER ZUM VERLIEBEN
TTITLE4=GEISTERTRUCK
TTITLE5=ORANGE BLOSSOM SPECIAL
TTITLE6=SOME BROKEN HEARTS NEVER MEND
TTITLE7=DOCH ICH HABE DICH GELIEBT
TTITLE8=IRGENWIE WIRDI'S SCHON GEH'N
TTITLE9=TAKE IT EASY - NIMM'S LEICHT
TTITLE10=FREUNDSCHAFT
TTITLE11=RING OF FIRE(DUETT MIT JOHN CARTER CASH)
TTITLE12=100 000 TONNEN
TTITLE13=RESPEKT VOR DEINER SCHWÄCHE
TTITLE14=INTERNATIONAL AIRPORT
TTITLE15=HALLO GUTEN MORGEN DEUTSCHLAND
TTITLE16=FLIEG JUNGER ADLER
TTITLE17=AUF WIEDERSEH'N GOODBYE
TTITLE18=TAKE ME HOME COUNTRY ROADS
EXTD=YEAR: 1996
EXTT0=
EXTT1=
EXTT2=
EXTT3=
EXTT4=
EXTT5=
EXTT6=
EXTT7=
EXTT8=
EXTT9=
EXTT10=
EXTT11=
EXTT12=
EXTT13=
EXTT14=
EXTT15=
EXTT16=
EXTT17=
EXTT18=
PLAYORDER=
